<svg xmlns="http://www.w3.org/2000/svg" width="32" height="32" viewBox="0 0 483.812 300.031">
  <path fill="black" d="M418.623,609.222q0,26.9-11.787,41.4t-33.717,14.5q-17.912,0-31.25-13.692t-16.63-35.181H298.193q1.461,32.073,22.386,52.882t51.626,20.809q34.9,0,54.55-21.381T446.4,609.375V390.939H418.623V609.222ZM668.94,520.778S608.277,424.263,595.9,407.309C588.417,397.056,568.342,390,544.874,390c-16.182,0-75.039,12.676-75.039,74.044s45.852,71.394,61.032,76.928,73.039,13.529,73.039,71.159c0,59.44-109.221,81.761-114.061-6.731H461.83s0.067,84.621,83.044,84.621c52.562,0,73.039-38.464,73.039-38.464l51.027-79.814,75.04,118.165H776L684.949,546.742,782,394.808H749.983Zm-95.05-99.045,78.041,125.009-24.013,38.464s-4.784-34.42-34.018-50c-56.511-30.124-98.945-21.662-97.051-73.082C498.668,412.738,555.75,409.663,573.89,421.733Z" transform="translate(-298.188 -390)"/>
</svg>
